<?xml version="1.0" encoding="utf-8"?>
<!-- Generator: Adobe Illustrator 27.5.0, SVG Export Plug-In . SVG Version: 6.00 Build 0)  -->
<svg version="1.1" xmlns="http://www.w3.org/2000/svg" xmlns:xlink="http://www.w3.org/1999/xlink" x="0px" y="0px"
	 viewBox="0 0 500 500" style="enable-background:new 0 0 500 500;" xml:space="preserve">
<g id="BACKGROUND">
	<g>
		<rect style="fill:#3C3354;" width="500" height="500"/>
		<path style="fill:#463E63;" d="M500,277.29V500H0V285.45c3.7-2.87,7.73-5.53,12.27-7.94c26.86-14.26,56.12-12.29,83.96-2.72
			c26.88,9.24,52.77,26.82,81.35,29.6c34.56,3.36,59.88-5.3,87.55-25.73c38.67-28.56,82.31-39.1,125.63-11.44
			c27.34,17.45,52.15,41.51,86.95,25.27C485.72,288.76,493.12,283.38,500,277.29z"/>
		<g>
			<g>
				<path style="fill:#3C3354;" d="M35.608,316.283c-6.276,0-11.383-5.106-11.383-11.383c0-6.277,5.106-11.383,11.383-11.383
					S46.99,298.624,46.99,304.9C46.99,311.177,41.884,316.283,35.608,316.283z M35.608,296.553c-4.603,0-8.347,3.745-8.347,8.347
					s3.745,8.347,8.347,8.347s8.347-3.745,8.347-8.347S40.21,296.553,35.608,296.553z"/>
			</g>
			<g>
				<path style="fill:#3C3354;" d="M473.36,384.09c-6.276,0-11.383-5.106-11.383-11.383c0-6.277,5.106-11.383,11.383-11.383
					s11.383,5.106,11.383,11.383C484.743,378.984,479.636,384.09,473.36,384.09z M473.36,364.361c-4.603,0-8.347,3.745-8.347,8.347
					s3.745,8.347,8.347,8.347s8.347-3.745,8.347-8.347S477.963,364.361,473.36,364.361z"/>
			</g>
			<g>
				<g>
					<path style="fill:#463E63;" d="M458.142,194.283c-5.576,0-10.112-4.536-10.112-10.112c0-5.576,4.536-10.112,10.112-10.112
						c5.576,0,10.112,4.536,10.112,10.112C468.254,189.747,463.718,194.283,458.142,194.283z M458.142,176.755
						c-4.089,0-7.416,3.327-7.416,7.416c0,4.089,3.327,7.416,7.416,7.416c4.089,0,7.415-3.327,7.415-7.416
						C465.558,180.082,462.231,176.755,458.142,176.755z"/>
				</g>
				<g>
					<path style="fill:#463E63;" d="M108.085,48.976c-5.47,0-9.921-4.45-9.921-9.921s4.451-9.921,9.921-9.921
						c5.47,0,9.921,4.45,9.921,9.921S113.555,48.976,108.085,48.976z M108.085,31.78c-4.012,0-7.275,3.264-7.275,7.275
						s3.264,7.275,7.275,7.275c4.012,0,7.275-3.264,7.275-7.275S112.096,31.78,108.085,31.78z"/>
				</g>
				<g>
					<path style="fill:#463E63;" d="M465.6,279.784l-0.054,0.072c-1.053,1.41-3.143,1.476-4.283,0.136l-0.055-0.064
						c-1.455-1.709-0.355-4.35,1.883-4.517c0.036-0.003,0.073-0.005,0.109-0.008C465.544,275.246,467.006,277.901,465.6,279.784z"/>
					<g>
						<path style="fill:#463E63;" d="M463.442,267.754c-2.56,0-5.017,0.458-7.292,1.301c-1.33,0.493-1.819,2.128-0.988,3.277
							c0.009,0.012,0.017,0.023,0.026,0.035c0.564,0.779,1.571,1.076,2.474,0.745c1.803-0.66,3.749-1.024,5.781-1.024
							c1.525,0,2.997,0.206,4.398,0.587c0.9,0.245,1.854-0.105,2.364-0.886l0.026-0.039c0.798-1.221,0.173-2.867-1.233-3.252
							C467.228,268.013,465.367,267.754,463.442,267.754z"/>
					</g>
					<g>
						<path style="fill:#463E63;" d="M463.442,259.085c-4.538,0-8.841,1.014-12.688,2.841c-1.194,0.567-1.555,2.099-0.786,3.174
							c0.008,0.012,0.017,0.024,0.025,0.036c0.601,0.841,1.715,1.132,2.651,0.692c3.279-1.543,6.943-2.408,10.798-2.408
							c3.217,0,6.297,0.598,9.129,1.691c0.941,0.363,2.004,0.023,2.559-0.819l0.023-0.035c0.743-1.129,0.284-2.682-0.976-3.171
							C470.846,259.793,467.224,259.085,463.442,259.085z"/>
					</g>
					<g>
						<path style="fill:#463E63;" d="M463.442,250.417c-6.4,0-12.447,1.575-17.762,4.361c-1.14,0.598-1.505,2.059-0.773,3.118
							c0.008,0.012,0.017,0.024,0.025,0.036c0.61,0.882,1.783,1.187,2.733,0.69c4.725-2.472,10.09-3.871,15.777-3.871
							c4.948,0,9.649,1.057,13.9,2.958c0.947,0.424,2.061,0.076,2.629-0.792l0.027-0.042c0.719-1.098,0.296-2.591-0.902-3.127
							C474.307,251.604,469.007,250.417,463.442,250.417z"/>
					</g>
				</g>
				<g>
					<path style="fill:#463E63;" d="M53.316,169.011l-0.054,0.072c-1.053,1.41-3.143,1.476-4.283,0.136l-0.055-0.064
						c-1.455-1.709-0.355-4.35,1.884-4.517c0.036-0.003,0.073-0.005,0.109-0.008C53.261,164.473,54.723,167.129,53.316,169.011z"/>
					<g>
						<path style="fill:#463E63;" d="M51.159,156.981c-2.56,0-5.018,0.458-7.292,1.301c-1.33,0.493-1.819,2.128-0.988,3.277
							c0.009,0.012,0.017,0.023,0.026,0.035c0.564,0.779,1.571,1.076,2.473,0.745c1.803-0.66,3.749-1.024,5.781-1.024
							c1.525,0,2.997,0.206,4.398,0.587c0.9,0.245,1.854-0.105,2.364-0.886l0.026-0.039c0.798-1.221,0.173-2.867-1.234-3.252
							C54.945,157.24,53.084,156.981,51.159,156.981z"/>
					</g>
					<g>
						<path style="fill:#463E63;" d="M51.159,148.313c-4.538,0-8.841,1.014-12.688,2.841c-1.194,0.567-1.555,2.099-0.787,3.174
							c0.008,0.012,0.017,0.024,0.025,0.035c0.601,0.841,1.715,1.132,2.651,0.692c3.279-1.543,6.943-2.408,10.799-2.408
							c3.217,0,6.297,0.598,9.129,1.691c0.941,0.363,2.004,0.023,2.559-0.819l0.023-0.035c0.743-1.129,0.284-2.682-0.976-3.171
							C58.562,149.021,54.941,148.313,51.159,148.313z"/>
					</g>
					<g>
						<path style="fill:#463E63;" d="M51.159,139.644c-6.401,0-12.447,1.575-17.762,4.361c-1.14,0.598-1.505,2.059-0.773,3.118
							c0.008,0.012,0.017,0.024,0.025,0.036c0.61,0.882,1.783,1.187,2.733,0.69c4.725-2.472,10.09-3.871,15.777-3.871
							c4.948,0,9.649,1.057,13.899,2.958c0.947,0.424,2.061,0.076,2.629-0.792l0.027-0.042c0.719-1.098,0.296-2.591-0.902-3.127
							C62.024,140.831,56.724,139.644,51.159,139.644z"/>
					</g>
				</g>
				<path style="fill:#463E63;" d="M427.25,46c-11.993,0-21.75,9.757-21.75,21.75s9.757,21.75,21.75,21.75
					c11.993,0,21.75-9.757,21.75-21.75S439.243,46,427.25,46z M408.217,68.824h6.652c-0.038,2.255,0.117,4.599,0.535,6.982h-5.428
					C408.973,73.664,408.356,71.307,408.217,68.824z M428.861,56.472v-7.714c1.498,0.126,2.947,0.425,4.327,0.879
					c0.578,1.148,1.711,3.579,2.739,6.835H428.861z M436.692,59.157c0.539,2.119,0.985,4.476,1.209,6.982h-9.04v-6.982H436.692z
					 M426.176,56.472h-6.425c1.166-3.699,2.465-6.333,2.934-7.231c1.128-0.278,2.295-0.458,3.491-0.524V56.472z M426.176,59.157
					v6.982h-8.397c0.224-2.505,0.67-4.862,1.208-6.982H426.176z M415.006,66.139h-6.748c0.21-2.494,0.901-4.852,1.981-6.982h5.908
					C415.629,61.296,415.213,63.647,415.006,66.139z M417.631,68.824h8.545v6.982h-7.996
					C417.738,73.429,417.584,71.083,417.631,68.824z M426.176,78.491v8.292c-1.389-0.078-2.736-0.307-4.031-0.668
					c-1.547-2.502-2.626-5.067-3.341-7.624H426.176z M428.861,78.491h8.008c-0.672,2.399-1.664,4.806-3.062,7.162
					c-1.563,0.574-3.223,0.944-4.946,1.089V78.491z M428.861,75.806v-6.982h9.187c0.046,2.258-0.11,4.604-0.553,6.982H428.861z
					 M440.8,68.824h5.483c-0.139,2.483-0.756,4.84-1.759,6.982h-4.259C440.683,73.423,440.838,71.079,440.8,68.824z M440.664,66.139
					c-0.207-2.492-0.624-4.843-1.142-6.982h4.738c1.08,2.13,1.772,4.488,1.981,6.982H440.664z M442.609,56.472h-3.816
					c-0.602-1.997-1.258-3.731-1.848-5.129C439.16,52.658,441.088,54.406,442.609,56.472z M419.077,50.529
					c-0.671,1.512-1.475,3.538-2.2,5.943h-4.986C413.751,53.945,416.218,51.892,419.077,50.529z M411.509,78.491h4.48
					c0.523,2.008,1.25,4.032,2.225,6.042C415.526,83.08,413.226,81,411.509,78.491z M437.916,83.544
					c0.748-1.684,1.327-3.374,1.764-5.053h3.31C441.632,80.476,439.909,82.194,437.916,83.544z"/>
			</g>
		</g>
	</g>
</g>
<g id="OBJECTS">
	<path style="fill:#3C3354;" d="M447.5,456h-395C39.025,456,28,444.975,28,431.5l0,0c0-13.475,11.025-24.5,24.5-24.5h395
		c13.475,0,24.5,11.025,24.5,24.5l0,0C472,444.975,460.975,456,447.5,456z"/>
	<g>
		<g>
			<g>
				<path style="fill:#F2F2F2;" d="M316.562,405.287v13.943H186.093v-13.943c38.842-15.935,41.829-81.667,41.829-81.667h46.809
					C274.732,323.62,283.695,393.335,316.562,405.287z"/>
				<rect x="186.093" y="405.287" style="fill:#CCCCCC;" width="130.468" height="13.943"/>
			</g>
			<g>
				<path style="fill:#262042;" d="M408.188,170.145V345.63c0,11.493-9.322,20.815-20.815,20.815H115.282
					c-11.493,0-20.815-9.322-20.815-20.815V170.145c0-11.493,9.322-20.815,20.815-20.815h272.091
					C398.866,149.33,408.188,158.652,408.188,170.145z"/>
				<path style="fill:#B3B3B3;" d="M408.188,320.632v24.998c0,11.493-9.322,20.815-20.815,20.815H115.282
					c-11.493,0-20.815-9.322-20.815-20.815v-24.998H408.188z"/>
			</g>
		</g>
		<g>
			<g>
				<path style="fill:#FFFFFF;" d="M389.265,108.068v212.285H113.389V108.068c0-8.406,6.822-15.228,15.228-15.228h245.42
					C382.443,92.84,389.265,99.662,389.265,108.068z"/>
				<g>
					<path style="fill:#726EA4;" d="M389.265,108.068v8.396H113.389v-8.396c0-8.406,6.822-15.228,15.228-15.228h245.42
						C382.443,92.84,389.265,99.662,389.265,108.068z"/>
					<circle style="fill:#FD5B42;" cx="132.81" cy="104.014" r="5.478"/>
					<path style="fill:#FECE5C;" d="M153.227,104.014c0,3.025-2.452,5.478-5.478,5.478c-3.025,0-5.478-2.452-5.478-5.478
						c0-3.025,2.452-5.478,5.478-5.478C150.775,98.537,153.227,100.989,153.227,104.014z"/>
					<path style="fill:#86CA4E;" d="M168.166,104.014c0,3.025-2.452,5.478-5.478,5.478c-3.025,0-5.478-2.452-5.478-5.478
						c0-3.025,2.452-5.478,5.478-5.478C165.714,98.537,168.166,100.989,168.166,104.014z"/>
				</g>
			</g>
			<polygon style="fill:#F2F2F2;" points="389.265,116.464 389.265,320.353 113.768,320.353 			"/>
		</g>
	</g>
	<g>
		<g>
			<path style="fill:#A4A3CC;" d="M255.161,99.49l-0.108,0.144c-2.102,2.813-6.272,2.945-8.547,0.271l-0.109-0.128
				c-2.903-3.411-0.708-8.681,3.758-9.014c0.072-0.005,0.145-0.01,0.217-0.015C255.05,90.434,257.967,95.733,255.161,99.49z"/>
			<g>
				<path style="fill:#A4A3CC;" d="M250.854,75.484c-5.108,0-10.012,0.914-14.551,2.595c-2.655,0.983-3.631,4.246-1.971,6.54
					c0.017,0.023,0.034,0.047,0.051,0.07c1.125,1.554,3.134,2.147,4.936,1.488c3.598-1.318,7.481-2.044,11.535-2.044
					c3.043,0,5.98,0.411,8.777,1.172c1.797,0.489,3.699-0.21,4.718-1.769l0.051-0.079c1.593-2.436,0.345-5.72-2.461-6.489
					C258.41,76.001,254.697,75.484,250.854,75.484z"/>
			</g>
			<g>
				<path style="fill:#A4A3CC;" d="M250.854,58.186c-9.055,0-17.642,2.024-25.319,5.669c-2.382,1.131-3.103,4.188-1.569,6.334
					c0.017,0.024,0.034,0.047,0.051,0.071c1.2,1.678,3.423,2.259,5.289,1.38c6.543-3.08,13.854-4.805,21.548-4.805
					c6.421,0,12.566,1.193,18.216,3.374c1.877,0.724,3.999,0.046,5.106-1.634l0.046-0.069c1.484-2.252,0.567-5.352-1.947-6.328
					C265.629,59.599,258.403,58.186,250.854,58.186z"/>
			</g>
			<g>
				<path style="fill:#A4A3CC;" d="M250.854,40.888c-12.772,0-24.838,3.143-35.443,8.702c-2.276,1.193-3.004,4.108-1.543,6.222
					c0.016,0.024,0.033,0.048,0.049,0.072c1.216,1.761,3.558,2.369,5.454,1.377c9.428-4.932,20.134-7.725,31.482-7.725
					c9.874,0,19.255,2.108,27.736,5.902c1.889,0.845,4.112,0.151,5.246-1.581l0.055-0.083c1.434-2.19,0.59-5.17-1.799-6.24
					C272.536,43.257,261.961,40.888,250.854,40.888z"/>
			</g>
		</g>
		<g>
			<g>
				<path style="fill:#726EA4;" d="M230.951,146.765h-91.203c-5.32,0-9.673-4.353-9.673-9.673l0,0c0-5.32,4.353-9.673,9.673-9.673
					h91.203c5.32,0,9.673,4.353,9.673,9.673l0,0C240.624,142.412,236.271,146.765,230.951,146.765z"/>
				<path style="fill:#FC4948;" d="M235.442,137.092c0,1.52-0.622,2.902-1.624,3.904c-1.002,1.002-2.384,1.624-3.904,1.624h-89.131
					c-3.04,0-5.527-2.487-5.527-5.527c0-1.52,0.622-2.902,1.624-3.904c1.002-1.002,2.384-1.624,3.904-1.624h89.131
					C232.955,131.564,235.442,134.052,235.442,137.092z"/>
				<path style="fill:#E6E6E6;" d="M235.442,137.092c0,1.52-0.622,2.902-1.624,3.904c-1.002,1.002-2.384,1.624-3.904,1.624h-21.592
					v-11.055h21.592C232.955,131.564,235.442,134.052,235.442,137.092z"/>
			</g>
			<g>
				<path style="fill:#726EA4;" d="M230.951,171.639h-91.203c-5.32,0-9.673-4.353-9.673-9.673v0c0-5.32,4.353-9.673,9.673-9.673
					h91.203c5.32,0,9.673,4.353,9.673,9.673v0C240.624,167.286,236.271,171.639,230.951,171.639z"/>
				<path style="fill:#28BDD6;" d="M235.442,161.966c0,1.52-0.622,2.902-1.624,3.904c-1.002,1.002-2.384,1.624-3.904,1.624h-89.131
					c-3.04,0-5.527-2.487-5.527-5.527c0-1.52,0.622-2.902,1.624-3.904c1.002-1.002,2.384-1.624,3.904-1.624h89.131
					C232.955,156.438,235.442,158.926,235.442,161.966z"/>
				<path style="fill:#E6E6E6;" d="M235.442,161.966c0,1.52-0.622,2.902-1.624,3.904c-1.002,1.002-2.384,1.624-3.904,1.624h-40.247
					v-11.055h40.247C232.955,156.438,235.442,158.926,235.442,161.966z"/>
			</g>
		</g>
		<g>
			<g>
				<g>
					<path style="fill:#28BDD6;" d="M240.343,267.096l25.975,50.69c1.289,2.516,0.285,5.628-2.23,6.917l-5.336,2.734
						c-2.515,1.289-5.628,0.285-6.917-2.23l-25.975-50.69c-1.289-2.516-0.285-5.628,2.23-6.917l5.336-2.734
						C235.941,263.577,239.054,264.581,240.343,267.096z"/>
					
						<rect x="232.874" y="275.322" transform="matrix(0.89 -0.456 0.456 0.89 -104.0166 141.4079)" style="opacity:0.19;fill:#726EA4;" width="16.274" height="21.841"/>
					<path style="fill:#E6E6E6;" d="M216.522,201.828l33.481,73.791l-22.868,11.718l-40.342-70.276l5.29-24.442
						c0.105-0.482,0.403-0.866,0.792-1.094c0.461-0.274,1.048-0.33,1.581-0.079L216.522,201.828z"/>
					<path style="fill:#B3B3B3;" d="M192.875,191.526l46.01,89.791l-11.75,6.021l-40.342-70.276l5.29-24.442
						C192.188,192.138,192.487,191.754,192.875,191.526z"/>
					<path style="fill:#28BDD6;" d="M262.324,280.6l-38.345,19.649c-2.988,1.531-6.652,0.35-8.183-2.638l-1.865-3.639
						c-1.531-2.988-0.35-6.652,2.638-8.183l38.344-19.648c2.988-1.531,6.652-0.35,8.183,2.638l1.865,3.639
						C266.494,275.405,265.313,279.069,262.324,280.6z"/>
					<path style="opacity:0.19;fill:#726EA4;" d="M260.461,274.11l-40.026,20.51c-0.941,0.482-2.106,0.107-2.588-0.834l-0.59-1.151
						c-0.482-0.941-0.107-2.106,0.834-2.588l40.026-20.51c0.941-0.482,2.106-0.107,2.588,0.834l0.59,1.151
						C261.778,272.463,261.403,273.628,260.461,274.11z"/>
				</g>
				<g>
					<path style="fill:#FBB42A;" d="M190.017,237.127c5.363,5.865,12.624,9.056,19.625,8.68c-4.395,5.463-6.045,13.221-4.417,20.999
						c-5.363-5.865-12.624-9.056-19.625-8.68C189.994,252.663,191.645,244.905,190.017,237.127z"/>
					<path style="fill:#FBB42A;" d="M220.481,176.22c4.201,4.594,9.889,7.094,15.373,6.799c-3.443,4.28-4.735,10.356-3.46,16.45
						c-4.201-4.594-9.889-7.094-15.373-6.799C220.464,188.39,221.757,182.313,220.481,176.22z"/>
				</g>
			</g>
			<g>
				<g>
					<path style="fill:#F49E14;" d="M301.504,234.61c-12.849-6.636-24.289-18.269-23.358-33.816
						c0.461-7.698,4.456-14.886,11.294-18.699c7.307-4.074,14.794-1.83,22.185,0.746c6.329,2.207,9.14-7.817,2.833-10.015
						c-9.775-3.407-19.366-5.261-28.988-0.37c-8.454,4.298-14.646,12.315-16.813,21.535c-5.005,21.3,9.379,40.19,27.451,49.523
						C302.038,246.577,307.46,237.686,301.504,234.61z"/>
					<path style="fill:#F49E14;" d="M364.182,252.341c14.421,1.078,30.26-2.837,37.611-16.568c3.64-6.799,4.003-15.014,0.175-21.844
						c-4.09-7.298-11.642-9.309-19.288-10.987c-6.547-1.436-3.691-11.447,2.833-10.016c10.111,2.218,19.252,5.664,24.886,14.871
						c4.95,8.09,6.024,18.162,3.04,27.151c-6.895,20.766-29.044,29.32-49.327,27.803
						C357.457,262.254,357.496,251.841,364.182,252.341z"/>
					
						<rect x="315.722" y="240.269" transform="matrix(0.9622 0.2722 -0.2722 0.9622 87.3024 -77.6523)" style="fill:#FBB42A;" width="15.613" height="71.125"/>
					<path style="fill:#FBB42A;" d="M395.443,188.908l-20.306,71.778c-3.117,11.017-14.681,17.481-25.698,14.364l-46.739-13.222
						c-11.017-3.117-17.481-14.681-14.364-25.698l20.306-71.778c0.486-1.719,1.18-3.344,2.051-4.828l85.532,24.197
						C396.19,185.441,395.93,187.188,395.443,188.908z"/>
					
						<rect x="333.602" y="150.722" transform="matrix(0.2722 -0.9622 0.9622 0.2722 63.8284 476.0423)" style="fill:#F7A91E;" width="26.021" height="90.208"/>
					<path style="fill:#FBB42A;" d="M409.412,200.071c-0.907,3.205-3.056,5.77-5.771,7.273c-2.72,1.52-5.997,2.017-9.219,1.106
						l-95.147-26.917c-6.427-1.818-10.197-8.564-8.379-14.99c0.907-3.205,3.057-5.77,5.772-7.273c2.72-1.52,5.997-2.017,9.219-1.106
						l95.147,26.917C407.46,186.898,411.23,193.644,409.412,200.071z"/>
					<polygon style="fill:#FFFFFF;" points="339.967,214.537 342.496,228.22 355.201,233.893 342.969,240.527 341.5,254.363 
						331.411,244.78 317.798,247.658 323.794,235.102 316.85,223.044 330.645,224.867 					"/>
					<path style="fill:#FBB42A;" d="M355.313,325.983l-2.205,7.795l-86.801-24.556l2.205-7.795c0.213-0.751,0.521-1.457,0.928-2.135
						c4.128-6.945,17.9-9.359,32.406-5.255l28.945,8.188c14.506,4.104,24.972,13.374,24.85,21.453
						C355.633,324.469,355.526,325.231,355.313,325.983z"/>
					<path style="fill:#F49E14;" d="M355.313,325.983l-2.205,7.795l-86.801-24.556l2.205-7.795c0.213-0.751,0.521-1.457,0.928-2.135
						l86.2,24.386C355.633,324.469,355.526,325.231,355.313,325.983z"/>
					<path style="fill:#FFC76C;" d="M344.465,183.5l-33.802-9.562c-1.262-0.357-2.003-1.682-1.646-2.945l1.062-3.756
						c0.357-1.262,1.682-2.003,2.945-1.646l33.802,9.563c1.262,0.357,2.003,1.682,1.646,2.945l-1.062,3.755
						C347.053,183.117,345.728,183.857,344.465,183.5z"/>
				</g>
				<g>
					<g>
						<g>
							<path style="fill:#FBB42A;" d="M330.641,128.803c-1.791,12.776-13.604,21.684-26.38,19.893
								c-1.09-0.153-2.154-0.382-3.176-0.677c-11.044-3.14-18.356-14.017-16.717-25.703c1.791-12.776,13.604-21.684,26.38-19.893
								c0.18,0.025,0.369,0.052,0.547,0.093C323.78,104.553,332.407,116.207,330.641,128.803z"/>
							
								<ellipse transform="matrix(0.6943 -0.7197 0.7197 0.6943 3.639 259.6851)" style="fill:#FECE5C;" cx="307.504" cy="125.559" rx="16.688" ry="16.688"/>
							<path style="opacity:0.12;fill:#FFFFFF;" d="M330.641,128.803c-1.791,12.776-13.604,21.684-26.38,19.893
								c-1.09-0.153-2.154-0.382-3.176-0.677c0.955-2.017,1.831-4.102,2.63-6.213c2.129-5.548,3.757-11.285,4.902-16.659
								c1.087-5.07,1.942-10.484,2.373-15.902c0.18-2.254,0.287-4.502,0.304-6.731C323.78,104.553,332.407,116.207,330.641,128.803z
								"/>
						</g>
						<polygon style="fill:#FBB42A;" points="308.676,117.196 310.622,123.083 316.574,124.817 311.577,128.487 311.766,134.684 
							306.732,131.065 300.897,133.16 302.783,127.254 298.987,122.352 305.187,122.321 						"/>
					</g>
					<g>
						<g>
							<path style="fill:#FBB42A;" d="M360.894,96.887c-7.313,6.711-18.685,6.223-25.396-1.09c-0.573-0.624-1.092-1.28-1.555-1.956
								c-5.022-7.266-4.044-17.302,2.645-23.441c7.313-6.711,18.685-6.223,25.396,1.09c0.095,0.103,0.194,0.211,0.279,0.322
								C368.681,79.131,368.103,90.271,360.894,96.887z"/>
							
								<ellipse transform="matrix(0.2049 -0.9788 0.9788 0.2049 195.4217 407.8506)" style="fill:#FECE5C;" cx="348.741" cy="83.644" rx="12.839" ry="12.839"/>
							<path style="opacity:0.12;fill:#FFFFFF;" d="M360.894,96.887c-7.313,6.711-18.685,6.223-25.396-1.09
								c-0.573-0.624-1.092-1.28-1.555-1.956c1.554-0.731,3.093-1.54,4.601-2.403c3.978-2.253,7.751-4.864,11.06-7.494
								c3.125-2.479,6.281-5.276,9.187-8.282c1.209-1.25,2.373-2.533,3.473-3.849C368.681,79.131,368.103,90.271,360.894,96.887z"/>
						</g>
						<polygon style="fill:#FBB42A;" points="353.528,79.251 351.803,83.699 354.49,87.641 349.727,87.375 346.808,91.148 
							345.589,86.536 341.099,84.926 345.108,82.342 345.252,77.574 348.949,80.588 						"/>
					</g>
					<g>
						<g>
							<path style="fill:#FBB42A;" d="M383.699,125.797c6.231,8.198,4.637,19.899-3.561,26.131
								c-0.699,0.532-1.427,1.005-2.169,1.419c-7.988,4.492-18.262,2.519-23.962-4.98c-6.232-8.198-4.637-19.9,3.561-26.131
								c0.116-0.088,0.236-0.18,0.36-0.258C366.102,116.05,377.555,117.715,383.699,125.797z"/>
							<path style="fill:#FECE5C;" d="M379.457,129.021c4.452,5.857,3.313,14.213-2.544,18.665s-14.213,3.313-18.665-2.544
								c-4.452-5.857-3.313-14.213,2.544-18.665C366.648,122.026,375.005,123.165,379.457,129.021z"/>
							<path style="opacity:0.12;fill:#FFFFFF;" d="M383.699,125.797c6.231,8.198,4.637,19.899-3.561,26.131
								c-0.699,0.532-1.427,1.005-2.169,1.419c-0.606-1.675-1.295-3.343-2.041-4.983c-1.946-4.325-4.281-8.474-6.682-12.144
								c-2.262-3.466-4.848-6.995-7.675-10.285c-1.176-1.369-2.389-2.694-3.643-3.957
								C366.102,116.05,377.555,117.715,383.699,125.797z"/>
						</g>
						<polygon style="fill:#FBB42A;" points="364.773,131.715 369.203,133.923 373.532,131.526 372.801,136.421 376.419,139.798 
							371.538,140.615 369.444,145.099 367.159,140.71 362.247,140.104 365.715,136.574 						"/>
					</g>
				</g>
			</g>
		</g>
		<g>
			<path style="fill:#A4A3CC;" d="M114.582,206.893h-29.34c-3.462,0-6.294,2.832-6.294,6.294v14.462
				c0,3.462,2.832,6.294,6.294,6.294h18.301c0.245,0,0.48,0.102,0.647,0.282l7.441,7.993c0.547,0.587,1.531,0.2,1.531-0.602v-6.788
				c0-0.488,0.396-0.884,0.884-0.884h0.536c3.462,0,6.294-2.832,6.294-6.294v-14.462
				C120.876,209.725,118.044,206.893,114.582,206.893z"/>
			<path style="fill:#F2F2F2;" d="M92.041,226.729h-29.34c-3.462,0-6.294,2.832-6.294,6.294v14.462c0,3.461,2.832,6.294,6.294,6.294
				h18.301c0.245,0,0.48,0.102,0.647,0.282l7.441,7.993c0.547,0.587,1.531,0.2,1.531-0.602v-6.788c0-0.488,0.396-0.884,0.884-0.884
				h0.536c3.462,0,6.294-2.832,6.294-6.294v-14.462C98.335,229.561,95.503,226.729,92.041,226.729z"/>
			<g>
				<path style="fill:#A4A3CC;" d="M69.326,240.254c0,1.851-1.501,3.352-3.352,3.352c-1.851,0-3.352-1.501-3.352-3.352
					c0-1.852,1.501-3.352,3.352-3.352C67.825,236.902,69.326,238.403,69.326,240.254z"/>
				<path style="fill:#A4A3CC;" d="M80.724,240.254c0,1.851-1.501,3.352-3.352,3.352c-1.852,0-3.352-1.501-3.352-3.352
					c0-1.852,1.501-3.352,3.352-3.352C79.223,236.902,80.724,238.403,80.724,240.254z"/>
				<path style="fill:#A4A3CC;" d="M92.121,240.254c0,1.851-1.501,3.352-3.352,3.352s-3.352-1.501-3.352-3.352
					c0-1.852,1.501-3.352,3.352-3.352S92.121,238.403,92.121,240.254z"/>
			</g>
			<g>
				<path style="fill:#FFFFFF;" d="M92.318,220.868c0,1.852-1.501,3.352-3.352,3.352c-1.851,0-3.352-1.501-3.352-3.352
					c0-1.851,1.501-3.352,3.352-3.352C90.817,217.516,92.318,219.017,92.318,220.868z"/>
				<path style="fill:#FFFFFF;" d="M103.716,220.868c0,1.852-1.501,3.352-3.352,3.352s-3.352-1.501-3.352-3.352
					c0-1.851,1.501-3.352,3.352-3.352S103.716,219.017,103.716,220.868z"/>
				<path style="fill:#FFFFFF;" d="M115.114,220.868c0,1.852-1.501,3.352-3.352,3.352c-1.851,0-3.352-1.501-3.352-3.352
					c0-1.851,1.501-3.352,3.352-3.352C113.613,217.516,115.114,219.017,115.114,220.868z"/>
			</g>
		</g>
		<g>
			<g>
				<path style="fill:#F2F2F2;" d="M164.893,246.994c0.299,4.742-1.103,9.195-3.678,12.772c-3.336,4.63-8.644,7.783-14.78,8.17
					c-6.136,0.387-11.793-2.076-15.689-6.245c-3.004-3.225-4.954-7.472-5.253-12.213c-0.686-10.878,7.58-20.256,18.458-20.942
					C154.829,227.85,164.207,236.116,164.893,246.994z"/>
				<path style="fill:#86CA4E;" d="M161.215,259.766c-3.336,4.63-8.644,7.783-14.78,8.17c-6.136,0.387-11.793-2.076-15.689-6.245
					c0.469-5.695,4.087-10.615,9.183-12.864c-1.581-1.346-2.636-3.303-2.777-5.54c-0.276-4.379,3.047-8.149,7.426-8.425
					c4.379-0.276,8.149,3.046,8.425,7.426c0.145,2.305-0.712,4.432-2.192,5.981C155.994,249.938,160.056,254.292,161.215,259.766z"
					/>
			</g>
			<g>
				<path style="fill:#E6E6E6;" d="M164.929,293.199c0.082,4.75-1.521,9.135-4.257,12.591c-3.544,4.473-8.99,7.381-15.137,7.488
					c-6.148,0.107-11.686-2.611-15.388-6.954c-2.854-3.359-4.608-7.69-4.691-12.44c-0.189-10.898,8.496-19.89,19.394-20.079
					S164.74,282.301,164.929,293.199z"/>
				<path style="fill:#FC4948;" d="M160.673,305.79c-3.544,4.473-8.99,7.381-15.137,7.488c-6.148,0.107-11.686-2.611-15.388-6.954
					c0.728-5.667,4.566-10.418,9.76-12.432c-1.518-1.417-2.483-3.42-2.522-5.661c-0.076-4.387,3.415-8.001,7.802-8.078
					c4.387-0.076,8.001,3.415,8.078,7.802c0.04,2.309-0.913,4.395-2.462,5.875C155.905,295.734,159.764,300.269,160.673,305.79z"/>
			</g>
			<g>
				<path style="fill:#F2F2F2;" d="M164.93,203.173c-0.058,4.751-1.791,9.086-4.628,12.459c-3.675,4.366-9.204,7.112-15.353,7.036
					c-6.148-0.075-11.604-2.956-15.175-7.407c-2.753-3.442-4.379-7.823-4.32-12.574c0.134-10.899,9.081-19.629,19.98-19.495
					C156.334,183.327,165.064,192.274,164.93,203.173z"/>
				<path style="fill:#28BDD6;" d="M160.303,215.633c-3.675,4.366-9.204,7.112-15.353,7.036c-6.148-0.075-11.604-2.956-15.175-7.407
					c0.895-5.643,4.873-10.278,10.124-12.138c-1.475-1.461-2.38-3.492-2.353-5.733c0.054-4.388,3.65-7.897,8.038-7.843
					c4.388,0.054,7.897,3.65,7.843,8.038c-0.028,2.309-1.043,4.367-2.635,5.799C155.835,205.44,159.559,210.087,160.303,215.633z"/>
			</g>
		</g>
	</g>
	<g>
		<g>
			<g>
				<path style="fill:#262042;" d="M266.233,348.662l0.281,75.787c0.023,6.175-5.011,11.246-11.186,11.269l-199.292,0.74
					c-6.175,0.023-11.246-5.011-11.269-11.186l-0.281-75.787c-0.023-6.175,5.011-11.246,11.186-11.269l199.292-0.74
					C261.139,337.453,266.21,342.486,266.233,348.662z"/>
				<g>
					<path style="fill:#FBB42A;" d="M99.179,338.054l0.364,98.242l-43.507,0.161c-6.175,0.023-11.246-5.011-11.269-11.186
						l-0.281-75.787c-0.023-6.175,5.011-11.246,11.186-11.269L99.179,338.054z"/>
					<path style="fill:#86CA4E;" d="M266.233,348.662l0.281,75.787c0.023,6.175-5.011,11.246-11.186,11.269l-43.507,0.161
						l-0.365-98.243l43.507-0.161C261.139,337.453,266.21,342.486,266.233,348.662z"/>
				</g>
				
					<rect x="107.08" y="345.331" transform="matrix(1 -0.0037 0.0037 1 -1.4348 0.5788)" style="opacity:0.29;fill:#463E63;" width="96.372" height="83.273"/>
				<g>
					<g>
						<path style="fill:#F2F2F2;" d="M65.869,396.604c-0.011-3.1,2.493-5.623,5.593-5.635c3.1-0.012,5.623,2.493,5.635,5.593
							c0.012,3.101-2.493,5.623-5.593,5.635C68.403,402.208,65.88,399.704,65.869,396.604z"/>
						<path style="fill:#F2F2F2;" d="M65.803,378.826c-0.011-3.1,2.493-5.623,5.593-5.635c3.1-0.012,5.623,2.493,5.635,5.593
							c0.012,3.1-2.493,5.623-5.593,5.635C68.337,384.431,65.814,381.927,65.803,378.826z"/>
					</g>
					<g>
						<path style="fill:#F2F2F2;" d="M80.359,393.275c-3.1,0.012-5.623-2.492-5.635-5.593c-0.012-3.1,2.493-5.623,5.593-5.635
							c3.1-0.012,5.623,2.493,5.635,5.593C85.964,390.741,83.46,393.263,80.359,393.275z"/>
						<path style="fill:#F2F2F2;" d="M62.582,393.341c-3.1,0.012-5.623-2.493-5.635-5.593c-0.012-3.1,2.493-5.623,5.593-5.635
							c3.1-0.012,5.623,2.493,5.635,5.593C68.187,390.807,65.682,393.329,62.582,393.341z"/>
					</g>
				</g>
				<g>
					<g>
						<path style="fill:#F2F2F2;" d="M233.512,395.186c-0.012-3.1,2.493-5.623,5.593-5.635c3.1-0.012,5.623,2.493,5.635,5.593
							c0.012,3.1-2.492,5.623-5.593,5.635C236.046,400.791,233.523,398.287,233.512,395.186z"/>
						<path style="fill:#F2F2F2;" d="M233.446,377.409c-0.012-3.101,2.493-5.623,5.593-5.635c3.1-0.012,5.623,2.493,5.635,5.593
							c0.011,3.1-2.493,5.623-5.593,5.635C235.98,383.014,233.458,380.51,233.446,377.409z"/>
					</g>
					<g>
						<path style="fill:#F2F2F2;" d="M248.002,391.858c-3.1,0.012-5.623-2.493-5.635-5.593c-0.012-3.1,2.493-5.623,5.593-5.635
							c3.1-0.012,5.623,2.493,5.635,5.593C253.607,389.324,251.103,391.846,248.002,391.858z"/>
						<path style="fill:#F2F2F2;" d="M230.225,391.924c-3.1,0.012-5.623-2.493-5.635-5.593c-0.012-3.101,2.493-5.623,5.593-5.635
							c3.1-0.012,5.623,2.493,5.635,5.593C235.83,389.389,233.326,391.912,230.225,391.924z"/>
					</g>
				</g>
			</g>
			<g>
				<path style="fill:#463E63;" d="M159.659,400.491l-0.059,0.08c-1.159,1.552-3.46,1.625-4.715,0.15l-0.06-0.071
					c-1.601-1.881-0.391-4.789,2.073-4.972c0.04-0.003,0.08-0.006,0.12-0.009C159.598,395.495,161.207,398.418,159.659,400.491z"/>
				<g>
					<path style="fill:#463E63;" d="M157.284,387.248c-2.818,0-5.523,0.504-8.027,1.432c-1.464,0.542-2.003,2.342-1.087,3.608
						c0.009,0.013,0.019,0.026,0.028,0.039c0.62,0.857,1.729,1.185,2.723,0.821c1.985-0.727,4.127-1.128,6.363-1.128
						c1.679,0,3.299,0.227,4.842,0.647c0.991,0.27,2.041-0.116,2.603-0.976l0.028-0.043c0.879-1.344,0.191-3.156-1.358-3.58
						C161.452,387.533,159.403,387.248,157.284,387.248z"/>
				</g>
				<g>
					<path style="fill:#463E63;" d="M157.284,377.706c-4.995,0-9.732,1.117-13.967,3.127c-1.314,0.624-1.712,2.311-0.866,3.494
						c0.009,0.013,0.019,0.026,0.028,0.039c0.662,0.926,1.888,1.246,2.918,0.761c3.609-1.699,7.642-2.651,11.887-2.651
						c3.542,0,6.932,0.658,10.049,1.861c1.035,0.4,2.206,0.025,2.817-0.902l0.025-0.038c0.818-1.242,0.313-2.953-1.074-3.491
						C165.434,378.485,161.448,377.706,157.284,377.706z"/>
				</g>
				<g>
					<path style="fill:#463E63;" d="M157.284,368.164c-7.046,0-13.702,1.734-19.552,4.801c-1.255,0.658-1.657,2.266-0.851,3.432
						c0.009,0.013,0.018,0.026,0.027,0.039c0.671,0.971,1.963,1.307,3.009,0.76c5.201-2.721,11.107-4.261,17.367-4.261
						c5.447,0,10.622,1.163,15.3,3.256c1.042,0.466,2.268,0.083,2.894-0.872l0.03-0.046c0.791-1.208,0.326-2.852-0.992-3.442
						C169.244,369.47,163.41,368.164,157.284,368.164z"/>
				</g>
			</g>
		</g>
		<g>
			<path style="fill:#28BDD6;" d="M454.45,415.629l-5.104-16.883l-8.163-26.966c-5.957-19.644-29.002-17.406-45.267-17.457
				c-0.835-0.003-1.687,4.995-2.555,4.992c-12.866-0.038-29.113-0.072-42.25-0.089c-0.916-0.001-1.818-5.002-2.702-5.003
				c-10.931-0.023-25.282-2.549-35.218,2.993c-5.361,2.968-9.619,7.94-11.561,14.271l-13.451,43.793
				c-3.986,12.991,3.298,26.755,16.289,30.741c11.754,3.609,24.377-2.022,29.539-13.182l2.425-5.232
				c3.086,2.916,7.234,4.719,11.814,4.729c7.145,0.015,13.284-4.31,15.926-10.49l15.613,0.033
				c2.616,6.191,8.738,10.542,15.882,10.557c4.117,0.009,7.897-1.429,10.87-3.828l2.011,4.388
				c5.116,11.182,17.715,16.866,29.484,13.306c10.617-3.202,17.461-12.949,17.483-23.486
				C455.519,420.44,455.179,418.02,454.45,415.629z"/>
			<g>
				<path style="fill:#F2F2F2;" d="M361.237,415.088c-0.015,7.155-5.828,12.944-12.983,12.929
					c-7.156-0.015-12.944-5.828-12.929-12.983c0.015-7.155,5.828-12.944,12.983-12.929
					C355.464,402.12,361.252,407.932,361.237,415.088z"/>
				<path style="fill:#FBB42A;" d="M356.918,415.079c-0.01,4.77-3.885,8.629-8.656,8.619c-4.77-0.01-8.629-3.885-8.619-8.656
					c0.01-4.77,3.885-8.629,8.656-8.619C353.069,406.433,356.928,410.309,356.918,415.079z"/>
			</g>
			<g>
				<path style="fill:#F2F2F2;" d="M408.743,415.188c-0.015,7.155-5.828,12.944-12.983,12.929
					c-7.156-0.015-12.944-5.828-12.929-12.983c0.015-7.156,5.828-12.944,12.983-12.929
					C402.97,402.219,408.758,408.032,408.743,415.188z"/>
				<path style="fill:#FBB42A;" d="M404.425,415.179c-0.01,4.77-3.885,8.629-8.656,8.619c-4.77-0.01-8.629-3.885-8.619-8.656
					c0.01-4.77,3.885-8.629,8.656-8.619C400.576,406.533,404.435,410.408,404.425,415.179z"/>
			</g>
			<g>
				<g>
					<path style="fill:#F2F2F2;" d="M417.84,371.519c-0.005,2.521-2.054,4.561-4.575,4.556c-2.521-0.005-4.561-2.054-4.556-4.575
						c0.005-2.522,2.054-4.561,4.575-4.556C415.806,366.95,417.845,368.998,417.84,371.519z"/>
					<path style="fill:#F2F2F2;" d="M417.701,390.725c-0.527,2.466-2.952,4.038-5.418,3.511c-2.466-0.527-4.038-2.952-3.511-5.418
						c0.526-2.466,2.952-4.038,5.418-3.511C416.656,385.833,418.228,388.259,417.701,390.725z"/>
				</g>
				<g>
					<path style="fill:#F2F2F2;" d="M404.134,376.056c2.521,0.005,4.561,2.054,4.556,4.575c-0.005,2.521-2.054,4.561-4.575,4.556
						c-2.521-0.005-4.561-2.053-4.556-4.575C399.565,378.09,401.613,376.051,404.134,376.056z"/>
					<path style="fill:#F2F2F2;" d="M422.396,376.094c2.521,0.005,4.561,2.054,4.556,4.575c-0.005,2.521-2.054,4.561-4.575,4.556
						c-2.522-0.005-4.561-2.054-4.556-4.575C417.826,378.129,419.875,376.089,422.396,376.094z"/>
				</g>
			</g>
			<g>
				<g>
					<path style="fill:#F2F2F2;" d="M334.964,371.519c-0.005,2.521-2.054,4.561-4.575,4.556c-2.521-0.005-4.561-2.054-4.556-4.575
						c0.005-2.522,2.054-4.561,4.575-4.556C332.929,366.95,334.969,368.998,334.964,371.519z"/>
					<path style="fill:#F2F2F2;" d="M334.825,390.725c-0.527,2.466-2.952,4.038-5.418,3.511c-2.466-0.527-4.038-2.952-3.511-5.418
						c0.526-2.466,2.952-4.038,5.418-3.511C333.779,385.833,335.351,388.259,334.825,390.725z"/>
				</g>
				<g>
					<path style="fill:#F2F2F2;" d="M321.258,376.056c2.521,0.005,4.561,2.054,4.556,4.575c-0.005,2.521-2.054,4.561-4.575,4.556
						c-2.521-0.005-4.561-2.053-4.556-4.575C316.688,378.09,318.736,376.051,321.258,376.056z"/>
					<path style="fill:#F2F2F2;" d="M339.52,376.094c2.521,0.005,4.561,2.054,4.556,4.575c-0.005,2.521-2.054,4.561-4.575,4.556
						c-2.522-0.005-4.561-2.054-4.556-4.575C334.95,378.129,336.998,376.089,339.52,376.094z"/>
				</g>
			</g>
			<path style="opacity:0.19;fill:#726EA4;" d="M441.003,426.55c-3.366,0.89-5.866,3.481-9.452,4.023
				c-3.611,0.545-7.138-1.704-10.713-0.378c-1.132,0.42-1.787,1.245-1.875,2.452c-0.513,7.007,8.796,8.877,14.031,8.25
				c5.488-0.657,12.419-4.736,12.475-10.93C445.489,427.654,443.207,425.966,441.003,426.55z"/>
			<path style="opacity:0.19;fill:#726EA4;" d="M302.088,426.258c3.362,0.905,5.851,3.506,9.435,4.062
				c3.609,0.56,7.145-1.674,10.715-0.333c1.13,0.424,1.781,1.253,1.865,2.46c0.484,7.009-8.833,8.84-14.065,8.192
				c-5.485-0.68-12.399-4.788-12.429-10.982C297.596,427.344,299.886,425.666,302.088,426.258z"/>
			<path style="fill:#262042;" d="M389.398,401.055h-33.244c-1.354,0-2.462-1.108-2.462-2.461l0,0c0-1.354,1.108-2.462,2.462-2.462
				h33.244c1.354,0,2.461,1.108,2.461,2.462l0,0C391.86,399.947,390.752,401.055,389.398,401.055z"/>
			<path style="fill:#262042;" d="M389.398,391.978h-33.244c-1.354,0-2.462-1.108-2.462-2.462l0,0c0-1.354,1.108-2.462,2.462-2.462
				h33.244c1.354,0,2.461,1.108,2.461,2.462l0,0C391.86,390.87,390.752,391.978,389.398,391.978z"/>
			<path style="fill:#FBB42A;" d="M387.331,377.722h-28.608c-2.594,0-4.696-2.103-4.696-4.696v-4.941
				c0-2.593,2.102-4.696,4.696-4.696h28.608c2.594,0,4.696,2.103,4.696,4.696v4.941
				C392.027,375.619,389.924,377.722,387.331,377.722z"/>
		</g>
	</g>
</g>
</svg>
